<?xml version="1.0" encoding="UTF-8" standalone="no"?>
<!-- Uploaded to: SVG Repo, www.svgrepo.com, Generator: SVG Repo Mixer Tools -->

<svg
   width="800px"
   height="800px"
   viewBox="0 0 24 24"
   fill="none"
   version="1.1"
   id="svg5"
   sodipodi:docname="anxiety.svg"
   inkscape:version="1.4.2 (ebf0e940, 2025-05-08)"
   xmlns:inkscape="http://www.inkscape.org/namespaces/inkscape"
   xmlns:sodipodi="http://sodipodi.sourceforge.net/DTD/sodipodi-0.dtd"
   xmlns:xlink="http://www.w3.org/1999/xlink"
   xmlns="http://www.w3.org/2000/svg"
   xmlns:svg="http://www.w3.org/2000/svg">
  <defs
     id="defs5">
    <inkscape:path-effect
       effect="offset"
       id="path-effect5"
       is_visible="true"
       lpeversion="1.3"
       linejoin_type="bevel"
       unit="mm"
       offset="4.4"
       miter_limit="4"
       attempt_force_join="false"
       update_on_knot_move="true" />
  </defs>
  <sodipodi:namedview
     id="namedview5"
     pagecolor="#ffffff"
     bordercolor="#000000"
     borderopacity="0.25"
     inkscape:showpageshadow="2"
     inkscape:pageopacity="0.0"
     inkscape:pagecheckerboard="0"
     inkscape:deskcolor="#d1d1d1"
     inkscape:zoom="0.54570927"
     inkscape:cx="294.11265"
     inkscape:cy="484.69032"
     inkscape:window-width="1512"
     inkscape:window-height="916"
     inkscape:window-x="0"
     inkscape:window-y="38"
     inkscape:window-maximized="1"
     inkscape:current-layer="g6" />
  <g
     id="g6"
     transform="translate(-0.28418618)">
    <rect
       style="fill:#b3b3b3;stroke:none;stroke-width:3;stroke-dasharray:none;stroke-opacity:1;paint-order:stroke fill markers"
       id="rect6"
       width="4.0109344"
       height="1.5418031"
       x="5.6923766"
       y="16.757025"
       transform="translate(0.28418618)" />
    <path
       style="fill:#b3b3b3;stroke:none;stroke-width:0.90399;stroke-dasharray:none;stroke-opacity:1;paint-order:stroke fill markers"
       sodipodi:type="inkscape:offset"
       inkscape:radius="1.9355469"
       inkscape:original="M 4.9550781 1.9355469 C 3.4391434 1.9355469 2.2109375 3.1637527 2.2109375 4.6796875 L 2.2109375 19.320312 C 2.2109375 20.836293 3.4391434 22.064453 4.9550781 22.064453 L 15.935547 22.064453 C 17.451527 22.064453 18.679688 20.836293 18.679688 19.320312 L 18.679688 18.404297 C 18.679688 17.89897 18.268999 17.490234 17.763672 17.490234 C 17.258345 17.490234 16.849609 17.89897 16.849609 18.404297 L 16.849609 19.320312 C 16.849609 19.825639 16.440874 20.234375 15.935547 20.234375 L 4.9550781 20.234375 C 4.4497696 20.234375 4.0410156 19.825639 4.0410156 19.320312 L 4.0410156 4.6796875 C 4.0410156 4.174379 4.4497696 3.765625 4.9550781 3.765625 L 15.935547 3.765625 C 16.440874 3.765625 16.849609 4.174379 16.849609 4.6796875 C 16.849609 5.184996 17.258345 5.5957031 17.763672 5.5957031 C 18.268999 5.5957031 18.679688 5.184996 18.679688 4.6796875 C 18.679688 3.1637527 17.451527 1.9355469 15.935547 1.9355469 L 4.9550781 1.9355469 z M 19.828125 6.4882812 C 19.18002 6.4882835 18.531594 6.7359932 18.037109 7.2304688 L 10.904297 14.363281 C 10.499798 14.767872 10.230776 15.289174 10.136719 15.853516 L 9.9882812 16.757812 C 9.7818594 17.99638 10.853321 19.067741 12.091797 18.861328 L 12.996094 18.712891 C 13.560436 18.618834 14.081737 18.349812 14.486328 17.945312 L 21.619141 10.8125 C 22.608018 9.8235213 22.608018 8.219429 21.619141 7.2304688 C 21.124656 6.7359932 20.47623 6.488279 19.828125 6.4882812 z M 6.7851562 6.5097656 C 6.2798477 6.5097656 5.8710937 6.9204727 5.8710938 7.4257812 C 5.8710938 7.9310898 6.2798477 8.3398437 6.7851562 8.3398438 L 14.105469 8.3398438 C 14.610796 8.3398438 15.019531 7.9310898 15.019531 7.4257812 C 15.019531 6.9204727 14.610796 6.5097656 14.105469 6.5097656 L 6.7851562 6.5097656 z M 19.828125 8.3183594 C 20.007901 8.3183594 20.189021 8.386273 20.326172 8.5234375 C 20.600565 8.7977669 20.600565 9.2432395 20.326172 9.5175781 L 13.191406 16.652344 C 13.056634 16.787116 12.883426 16.874959 12.695312 16.90625 L 11.792969 17.056641 L 11.943359 16.154297 C 11.974651 15.966183 12.062402 15.792975 12.197266 15.658203 L 19.332031 8.5234375 C 19.469228 8.3862728 19.648348 8.3183594 19.828125 8.3183594 z M 6.7851562 10.169922 C 6.2798477 10.169922 5.8710937 10.580611 5.8710938 11.085938 C 5.8710938 11.591264 6.2798477 12 6.7851562 12 L 10.445312 12 C 10.950639 12 11.359375 11.591264 11.359375 11.085938 C 11.359375 10.580611 10.950639 10.169922 10.445312 10.169922 L 6.7851562 10.169922 z M 6.7851562 13.830078 C 6.2798477 13.830078 5.8710937 14.238814 5.8710938 14.744141 C 5.8710938 15.249467 6.2798477 15.660156 6.7851562 15.660156 L 7.6992188 15.660156 C 8.2045273 15.660156 8.6152344 15.249467 8.6152344 14.744141 C 8.6152344 14.238814 8.2045273 13.830078 7.6992188 13.830078 L 6.7851562 13.830078 z "
       xlink:href="#path1"
       id="path5"
       inkscape:href="#path1"
       d="M 4.9550781,0 C 2.3936939,0 0.27539063,2.1183031 0.27539063,4.6796875 V 19.320312 C 0.27539063,21.881711 2.3937328,24 4.9550781,24 H 15.935547 c 2.561359,0 4.679687,-2.118327 4.679687,-4.679688 v -0.916015 c 0,-1.048722 -0.685054,-1.808153 -1.546875,-2.302735 l 3.919922,-3.919921 c 1.728802,-1.72898 1.728823,-4.591345 0,-6.3203129 -0.664681,-0.6646682 -1.512832,-0.9993027 -2.382812,-1.15625 1.01e-4,-0.00968 0.0098,-0.015689 0.0098,-0.025391 C 20.615234,2.1183413 18.496945,0 15.935547,0 Z m 1.0214844,17.255859 c 2.0961156,0.320401 0.1285477,1.081855 2.1835938,0.146485 0.03342,0.304368 0.012336,0.615512 0.1171875,0.896484 H 5.9765625 Z" />
    <path
       id="path1"
       style="fill:#000000;stroke:none;stroke-width:0.90399;stroke-dasharray:none;stroke-opacity:1;paint-order:stroke fill markers"
       sodipodi:type="inkscape:offset"
       inkscape:radius="0"
       inkscape:original="M 4 1 C 2.34315 1 1 2.34315 1 4 L 1 20 C 1 21.6569 2.34315 23 4 23 L 16 23 C 17.6569 23 19 21.6569 19 20 L 19 19 C 19 18.4477 18.5523 18 18 18 C 17.4477 18 17 18.4477 17 19 L 17 20 C 17 20.5523 16.5523 21 16 21 L 4 21 C 3.44772 21 3 20.5523 3 20 L 3 4 C 3 3.44772 3.44772 3 4 3 L 16 3 C 16.5523 3 17 3.44772 17 4 C 17 4.55228 17.4477 5 18 5 C 18.5523 5 19 4.55228 19 4 C 19 2.34315 17.6569 1 16 1 L 4 1 z M 20.255859 5.9765625 C 19.547509 5.976565 18.839278 6.2466694 18.298828 6.7871094 L 10.501953 14.583984 C 10.059853 15.026184 9.7668625 15.594137 9.6640625 16.210938 L 9.5 17.199219 C 9.27439 18.552919 10.447181 19.7256 11.800781 19.5 L 12.789062 19.335938 C 13.405863 19.233138 13.973816 18.940147 14.416016 18.498047 L 22.212891 10.701172 C 23.293691 9.6202618 23.293691 7.8679994 22.212891 6.7871094 C 21.672441 6.2466694 20.964209 5.97656 20.255859 5.9765625 z M 6 6 C 5.44772 6 5 6.44772 5 7 C 5 7.55228 5.44772 8 6 8 L 14 8 C 14.5523 8 15 7.55228 15 7 C 15 6.44772 14.5523 6 14 6 L 6 6 z M 20.255859 7.9765625 C 20.452346 7.9765625 20.648928 8.0512571 20.798828 8.2011719 C 21.098728 8.5010019 21.098728 8.9872694 20.798828 9.2871094 L 13.001953 17.083984 C 12.854653 17.231284 12.664584 17.329081 12.458984 17.363281 L 11.472656 17.527344 L 11.636719 16.541016 C 11.670919 16.335416 11.768616 16.145347 11.916016 15.998047 L 19.712891 8.2011719 C 19.862841 8.0512569 20.059371 7.9765625 20.255859 7.9765625 z M 6 10 C 5.44772 10 5 10.4477 5 11 C 5 11.5523 5.44772 12 6 12 L 10 12 C 10.5523 12 11 11.5523 11 11 C 11 10.4477 10.5523 10 10 10 L 6 10 z M 6 14 C 5.44772 14 5 14.4477 5 15 C 5 15.5523 5.44772 16 6 16 L 7 16 C 7.55228 16 8 15.5523 8 15 C 8 14.4477 7.55228 14 7 14 L 6 14 z "
       d="M 4,1 C 2.34315,1 1,2.34315 1,4 v 16 c 0,1.6569 1.34315,3 3,3 h 12 c 1.6569,0 3,-1.3431 3,-3 v -1 c 0,-0.5523 -0.4477,-1 -1,-1 -0.5523,0 -1,0.4477 -1,1 v 1 c 0,0.5523 -0.4477,1 -1,1 H 4 C 3.44772,21 3,20.5523 3,20 V 4 C 3,3.44772 3.44772,3 4,3 h 12 c 0.5523,0 1,0.44772 1,1 0,0.55228 0.4477,1 1,1 0.5523,0 1,-0.44772 1,-1 0,-1.65685 -1.3431,-3 -3,-3 z m 16.255859,4.9765625 c -0.70835,2.5e-6 -1.416581,0.2701069 -1.957031,0.8105469 l -7.796875,7.7968746 c -0.4421,0.4422 -0.7350905,1.010153 -0.8378905,1.626954 L 9.5,17.199219 C 9.27439,18.552919 10.447181,19.7256 11.800781,19.5 l 0.988281,-0.164062 c 0.616801,-0.1028 1.184754,-0.395791 1.626954,-0.837891 l 7.796875,-7.796875 c 1.0808,-1.0809102 1.0808,-2.8331726 0,-3.9140626 C 21.672441,6.2466694 20.964209,5.97656 20.255859,5.9765625 Z M 6,6 C 5.44772,6 5,6.44772 5,7 5,7.55228 5.44772,8 6,8 h 8 C 14.5523,8 15,7.55228 15,7 15,6.44772 14.5523,6 14,6 Z m 14.255859,1.9765625 c 0.196487,0 0.393069,0.074695 0.542969,0.2246094 0.2999,0.29983 0.2999,0.7860975 0,1.0859375 l -7.796875,7.7968746 c -0.1473,0.1473 -0.337369,0.245097 -0.542969,0.279297 l -0.986328,0.164063 0.164063,-0.986328 c 0.0342,-0.2056 0.131897,-0.395669 0.279297,-0.542969 l 7.796875,-7.7968751 c 0.14995,-0.149915 0.34648,-0.2246094 0.542968,-0.2246094 z M 6,10 c -0.55228,0 -1,0.4477 -1,1 0,0.5523 0.44772,1 1,1 h 4 c 0.5523,0 1,-0.4477 1,-1 0,-0.5523 -0.4477,-1 -1,-1 z m 0,4 c -0.55228,0 -1,0.4477 -1,1 0,0.5523 0.44772,1 1,1 H 7 C 7.55228,16 8,15.5523 8,15 8,14.4477 7.55228,14 7,14 Z"
       transform="matrix(0.91494991,0,0,0.91494991,1.2954727,1.0206011)" />
  </g>
</svg>
